<svg width="67" height="28" viewBox="0 0 67 28" fill="none" xmlns="http://www.w3.org/2000/svg">
<path d="M1.06937 18.803H8.13037V22H11.2584V18.803H13.7194V16.089H11.2584V7.073H7.34837L1.06937 15.491V18.803ZM8.13037 16.089H3.87537L8.13037 10.385V16.089ZM15.529 20.068C15.529 21.218 16.472 22.161 17.622 22.161C18.795 22.161 19.738 21.218 19.738 20.068C19.738 18.918 18.795 17.975 17.622 17.975C16.472 17.975 15.529 18.918 15.529 20.068ZM21.8666 17.814C22.0506 20.16 24.3046 22.368 27.5476 22.368C31.1356 22.368 33.2746 19.953 33.2746 17.17C33.2746 13.973 31.1586 12.179 28.1686 12.179C27.1796 12.179 26.1216 12.501 25.4776 13.099L26.2136 9.81H32.4696V7.073H24.0516L22.2806 14.732C22.6026 14.824 24.8796 15.606 25.1786 15.721C25.6616 15.169 26.4666 14.709 27.4786 14.709C28.8586 14.709 30.1236 15.514 30.1236 17.216C30.1236 18.711 28.9736 19.654 27.5476 19.654C25.9606 19.654 24.9026 18.527 24.8336 17.147L21.8666 17.814Z" fill="#FF5722"/>
<path d="M60.2518 16.32C59.9928 16.571 59.8738 16.934 59.9328 17.29L60.8218 22.21C60.8968 22.627 60.7208 23.049 60.3718 23.29C60.0298 23.54 59.5748 23.57 59.2018 23.37L54.7728 21.06C54.6188 20.978 54.4478 20.934 54.2728 20.929H54.0018C53.9078 20.943 53.8158 20.973 53.7318 21.019L49.3018 23.34C49.0828 23.45 48.8348 23.489 48.5918 23.45C47.9998 23.338 47.6048 22.774 47.7018 22.179L48.5918 17.259C48.6508 16.9 48.5318 16.535 48.2728 16.28L44.6618 12.78C44.3598 12.487 44.2548 12.047 44.3928 11.65C44.5268 11.254 44.8688 10.965 45.2818 10.9L50.2518 10.179C50.6298 10.14 50.9618 9.91 51.1318 9.57L53.3218 5.08C53.3738 4.98 53.4408 4.888 53.5218 4.81L53.6118 4.74C53.6588 4.688 53.7128 4.645 53.7728 4.61L53.8818 4.57L54.0518 4.5H54.4728C54.8488 4.539 55.1798 4.764 55.3528 5.1L57.5718 9.57C57.7318 9.897 58.0428 10.124 58.4018 10.179L63.3718 10.9C63.7918 10.96 64.1428 11.25 64.2818 11.65C64.4128 12.051 64.2998 12.491 63.9918 12.78L60.2518 16.32Z" fill="#FF5722"/>
</svg>
